<svg viewBox="0 0 360 80" fill="none" xmlns="http://www.w3.org/2000/svg">
  <!-- Symbol -->
  <g transform="translate(10, 5) scale(0.7)">
    <path
      d="M 28 86 L 18 66 L 15 46 L 27 28 L 47 18 L 68 10 L 85 4"
      stroke="#FF6A00"
      stroke-width="5"
      stroke-linecap="round"
      stroke-linejoin="round"
    />
    <path
      d="M 28 86 L 48 72 L 66 52 L 74 26 L 85 4"
      stroke="#FF6A00"
      stroke-width="5"
      stroke-linecap="round"
      stroke-linejoin="round"
    />
    <path
      d="M 68 4 L 88 2 L 86 22"
      stroke="#FF6A00"
      stroke-width="5"
      stroke-linecap="round"
      stroke-linejoin="round"
    />
    <circle cx="28" cy="86" r="6" fill="#FF6A00" />
    <circle cx="18" cy="66" r="6" fill="#FF6A00" />
    <circle cx="15" cy="46" r="6" fill="#FF6A00" />
    <circle cx="27" cy="28" r="6" fill="#FF6A00" />
    <circle cx="47" cy="18" r="6" fill="#FF6A00" />
    <circle cx="68" cy="10" r="6" fill="#FF6A00" />
    <circle cx="74" cy="26" r="6" fill="#FF6A00" />
    <circle cx="66" cy="52" r="6" fill="#FF6A00" />
    <circle cx="48" cy="72" r="6" fill="#FF6A00" />
  </g>

  <!-- Typography -->
  <text x="85" y="38" font-family="Plus Jakarta Sans, sans-serif" font-weight="900" font-size="28" fill="#0D182A" letter-spacing="-0.5">BUILD</text>
  <text x="85" y="66" font-family="Plus Jakarta Sans, sans-serif" font-weight="900" font-size="28" fill="#FF6A00" letter-spacing="-0.5">TAMIL NADU</text>
</svg>
